<svg t="1636280179383" class="icon" viewBox="0 0 1024 1024" version="1.1" xmlns="http://www.w3.org/2000/svg" p-id="6799" width="48" height="48"><path d="M512 34.133333c-17.066667 0-34.133333 12.8-34.133333 34.133334v162.133333c0 17.066667 12.8 34.133333 34.133333 34.133333s34.133333-12.8 34.133333-34.133333V68.266667c0-17.066667-17.066667-34.133333-34.133333-34.133334zM512 537.6c-17.066667 0-34.133333 12.8-34.133333 34.133333v119.466667c0 17.066667 12.8 34.133333 34.133333 34.133333s34.133333-12.8 34.133333-34.133333v-119.466667c0-21.333333-17.066667-34.133333-34.133333-34.133333zM512 307.2c-17.066667 0-34.133333 12.8-34.133333 34.133333v119.466667c0 17.066667 12.8 34.133333 34.133333 34.133333s34.133333-12.8 34.133333-34.133333V337.066667c0-17.066667-17.066667-29.866667-34.133333-29.866667zM512 763.733333c-17.066667 0-34.133333 12.8-34.133333 34.133334v162.133333c0 17.066667 12.8 34.133333 34.133333 34.133333s34.133333-12.8 34.133333-34.133333v-162.133333c0-21.333333-17.066667-34.133333-34.133333-34.133334zM149.333333 128H384c25.6 0 42.666667-17.066667 42.666667-42.666667s-17.066667-42.666667-42.666667-42.666666H149.333333C89.6 42.666667 42.666667 89.6 42.666667 149.333333v725.333334C42.666667 934.4 89.6 981.333333 149.333333 981.333333H384c25.6 0 42.666667-17.066667 42.666667-42.666666s-17.066667-42.666667-42.666667-42.666667H149.333333c-12.8 0-21.333333-8.533333-21.333333-21.333333v-725.333334c0-12.8 8.533333-21.333333 21.333333-21.333333zM874.666667 42.666667H640c-25.6 0-42.666667 17.066667-42.666667 42.666666s17.066667 42.666667 42.666667 42.666667h234.666667c12.8 0 21.333333 8.533333 21.333333 21.333333v725.333334c0 12.8-8.533333 21.333333-21.333333 21.333333H640c-25.6 0-42.666667 17.066667-42.666667 42.666667s17.066667 42.666667 42.666667 42.666666h234.666667c59.733333 0 106.666667-46.933333 106.666666-106.666666v-725.333334C981.333333 89.6 934.4 42.666667 874.666667 42.666667z" p-id="6800"></path></svg>